<svg xmlns="http://www.w3.org/2000/svg" width="62.759" height="51" viewBox="0 0 62.759 51">
  <path id="Path_28268" data-name="Path 28268" d="M50.306,6.05c.041-1.924-.032-3.139-.032-3.139L31.475,2.9h-.191l-18.8.014s-.071,1.215-.03,3.139H0V8.1C0,8.573.079,19.63,6.9,25.687a15.424,15.424,0,0,0,10.584,3.8c.633,0,1.284-.043,1.944-.1a18.168,18.168,0,0,0,8.216,6.674v9.02H18.575v5.649h-3V53.9h31.6V50.731h-3V45.082H35.109v-9.02a18.179,18.179,0,0,0,8.216-6.674c.664.057,1.315.1,1.948.1a15.424,15.424,0,0,0,10.582-3.8c6.824-6.057,6.9-17.114,6.9-17.583V6.05ZM9.643,22.625c-3.9-3.45-5.051-9.355-5.392-12.467h8.437a41.067,41.067,0,0,0,3.135,12.956c.355.779.728,1.518,1.11,2.24A11.323,11.323,0,0,1,9.643,22.625Zm43.474,0a11.306,11.306,0,0,1-7.289,2.729c.381-.72.755-1.461,1.11-2.24a41.006,41.006,0,0,0,3.133-12.956h8.437C58.167,13.268,57.017,19.173,53.116,22.625Z" transform="translate(0 -2.897)" fill="#fff"/>
</svg>
